<?xml version="1.0" encoding="utf-8"?>
<!-- Generator: Adobe Illustrator 16.0.0, SVG Export Plug-In . SVG Version: 6.00 Build 0)  -->
<!DOCTYPE svg PUBLIC "-//W3C//DTD SVG 1.1//EN" "http://www.w3.org/Graphics/SVG/1.1/DTD/svg11.dtd">
<svg version="1.1" id="Layer_1" xmlns="http://www.w3.org/2000/svg" xmlns:xlink="http://www.w3.org/1999/xlink" x="0px" y="0px"
	 width="200px" height="200px" viewBox="0 0 200 200" enable-background="new 0 0 200 200" xml:space="preserve">
<g>
	<path fill="#FFFFFF" d="M90.735,128.151c-15.748,0-31.471,0-47.194,0c-4.515,0-4.43,6.806,0,6.806c15.723,0,31.471,0,47.194,0
		C95.247,134.957,95.143,128.151,90.735,128.151z"/>
	<path fill="#FFFFFF" d="M94.589,123.574c2.616-2.414,1.297-3.212-0.866-4.818c-1.568-1.147-3.422-2.534-4.616-4.785
		c-5.959-11.143,8.365-24.023,1.915-38.477c-0.844-1.89-3.832-4.818-2.718-6.697c0.699-1.169,1.748-1.671,2.39-2.338
		c0.391-0.426,0.391-0.972-0.969-2.229c-7.565-7.09-12.757-11.832-23.062-13.743c-1.297-0.251-1.319-0.229-1.587-1.508
		c-0.636-3.081-2.698-11.416-6.12-12.945c-0.492,2.676,0.268,7.319-2.142,9.417c-0.642,0.557-1.3,0.448-2.105-0.065
		c-2.535-1.563-7.194-6.926-9.496-7.56c0.205,1.813,2.409,7.036,2.903,8.106c0.331,0.699,0.558,1.191-0.289,2.054
		c-2.532,2.622-8.016,3.114-11.269,2.83c-0.475-0.043-0.746-0.317-0.582,0.328c1.177,4.097,5.957,3.463,4.637,6.052
		c-3.832,7.625-25.984,24.034-25.099,29.06c0.265,1.431,1.464,7.833,2.617,8.838c0.95,0.831,2.594,0.273,3.813,0.907
		c1.278,0.667,1.813,2,2.248,2.229c2.223,1.093,5.11-2.938,7.295-6.019c3.256-4.578,2.245-3.671,6.88-3.125
		c6.577,0.732,12.987-3.507,15.42-2.742c1.131,0.35,1.48,1.376,0.781,3.583c-2.679,8.576-14.672,15.415-18.279,25.967
		c-1.3,3.791-0.888,7.418,2.824,9.461c0.989,0.557,2.223,1.027,3.646,1.464l44.207-0.065
		C89.416,126.13,92.587,125.147,94.589,123.574z"/>
	<polygon fill="#FFFFFF" points="145.942,69.836 138.503,113.479 168.079,113.479 160.639,69.836 	"/>
	<path fill="#FFFFFF" d="M182.938,147.685h-59.293c-2.824,0-2.739,4.238,0,4.238h59.293
		C185.76,151.923,185.697,147.685,182.938,147.685z"/>
	<path fill="#FFFFFF" d="M137.432,118.548h31.72c1.977-0.098,2.201-3.54-0.333-3.54h-31.157
		C135.37,115.009,135.332,118.341,137.432,118.548z"/>
	<path fill="#FFFFFF" d="M124.7,146.166h57.185v-13.295c0-4.96-4.037-9.002-9.007-9.002c-2.182-0.022-4.078-1.617-4.449-3.769
		h-30.253c-0.394,2.152-2.267,3.747-4.471,3.769c-4.968,0-9.004,4.042-9.004,9.002V146.166z"/>
	<path fill="#FFFFFF" d="M160.161,61.271c6.989-5.189,9.237-14.005,2.559-20.539c-5.192-5.112-13.664-5.112-18.858,0
		c-6.675,6.533-4.43,15.349,2.556,20.539l-10.572,3.452c-2.515,1.114-1.895,3.583,0,3.583h34.894c1.709,0,2.676-2.775,0-3.583
		L160.161,61.271z"/>
	<path fill="#FFFFFF" d="M153.939,173.183H81.955c-3.419,0-3.359,5.134,0,5.134h71.985
		C157.361,178.317,157.301,173.183,153.939,173.183z"/>
	<path fill="#FFFFFF" d="M127.748,69.355h-19.599c-0.309,3.343-2.308,5.015-5.255,5.298v2.142c10.034,0,20.071,0,30.108,0v-2.142
		C130.055,74.37,128.056,72.698,127.748,69.355z"/>
	<path fill="#FFFFFF" d="M121.089,30.573c0-10.673-6.284-9.526-6.284,0c-4.801,1.584-8.224,5.069-8.841,10.236
		c2.308,0.972,4.184,2.393,6.143,4.086c0.309-3.256,1.688-8.565,5.812-8.62c4.144-0.011,5.563,5.331,5.872,8.598
		c1.896-1.671,3.813-3.125,6.143-4.141C129.293,35.598,125.874,32.135,121.089,30.573z"/>
	<path fill="#FFFFFF" d="M122.616,48.686c-0.989,0.994-1.36,0.536-1.483-0.753c0.369-2.25,0.123-9.723-3.174-9.734
		c-3.321-0.022-3.564,7.483-3.195,9.734c-0.164,1.267-0.535,1.682-1.524,0.699c-2.021-1.988-5.708-5.593-8.491-6.271
		c-1.649-0.393-1.608,1.978-1.587,1.978c0.413,5.877,3.07,16.299,4.471,23.193h20.628c1.505-7.713,2.988-15.448,4.471-23.171
		c0.065-1.584-0.287-2.207-0.863-2.25C129.52,41.989,124.181,47.08,122.616,48.686z"/>
	<path fill="#FFFFFF" d="M135.682,119.499L135.682,119.499l0.309,1.77c0.309-0.371,0.554-0.819,0.661-1.311
		C136.28,119.849,135.971,119.685,135.682,119.499z"/>
	<path fill="#FFFFFF" d="M123.173,139.677H99.576c-1.401,8.161-16.365,1.311-16.365,15.513v16.136h69.469v-16.136
		c0-0.612-0.038-1.212-0.082-1.748h-28.953c-4.676,0-4.717-6.784-0.473-7.254V139.677z"/>
	<path fill="#FFFFFF" d="M123.173,133.515H98.958c-2.783,0-2.805,4.031-0.268,4.304h24.482V133.515z"/>
	<path fill="#FFFFFF" d="M126.882,78.63h-17.867l-9.007,53.028h23.226c0.62-5.222,5.069-9.297,10.452-9.319
		c0.205,0,0.41-0.022,0.615-0.055L126.882,78.63z"/>
	<path fill="#FFFFFF" d="M81.381,164.552H28.888c-3.627,0-3.545,4.326,0,4.326h52.493V164.552z"/>
	<path fill="#FFFFFF" d="M30.248,163h51.133v-7.811c0-14.224,15.931-11.11,15.472-14.202c-1.376-0.47-2.862-0.765-4.449-0.765
		c-2.843,0-5.296-1.639-5.773-3.867H47.621c-0.475,2.207-2.906,3.867-5.771,3.867c-6.385,0-11.602,4.151-11.602,9.199V163z"/>
</g>
</svg>
