<?xml version="1.0" encoding="utf-8"?>
<!-- Generator: Adobe Illustrator 16.0.0, SVG Export Plug-In . SVG Version: 6.00 Build 0)  -->
<!DOCTYPE svg PUBLIC "-//W3C//DTD SVG 1.1//EN" "http://www.w3.org/Graphics/SVG/1.1/DTD/svg11.dtd">
<svg version="1.1" id="Layer_1" xmlns="http://www.w3.org/2000/svg" xmlns:xlink="http://www.w3.org/1999/xlink" x="0px" y="0px"
	 width="200px" height="200px" viewBox="0 0 200 200" enable-background="new 0 0 200 200" xml:space="preserve">
<g>
	<path fill="#FFFFFF" d="M63.47,121.804L32.652,96.045l30.818-25.6c2.189-1.86,2.526-5.057,0.675-7.244
		c-1.012-1.178-2.526-1.851-4.045-1.851c-1.178,0-2.355,0.327-3.367,1.178L21.369,92.167c-1.18,1.01-1.855,2.355-1.855,4.047
		c0,1.673,0.675,3.019,1.855,4.028l35.533,29.647c1.012,0.841,2.021,1.177,3.367,1.177c1.519,0,3.033-0.673,4.042-1.851
		C65.996,126.861,65.659,123.664,63.47,121.804z"/>
	<path fill="#FFFFFF" d="M184.387,98.064c0-1.514-0.673-3.038-1.853-4.047L146.831,64.38c-1.01-0.841-2.189-1.178-3.367-1.178
		c-1.517,0-3.033,0.673-4.04,1.851c-1.855,2.196-1.517,5.393,0.673,7.244l30.818,25.768l-30.652,25.768
		c-2.187,1.851-2.523,5.047-0.673,7.234c1.012,1.178,2.357,1.86,4.042,1.86c1.178,0,2.358-0.505,3.367-1.187l35.535-29.638
		C183.714,101.093,184.387,99.579,184.387,98.064z"/>
	<path fill="#FFFFFF" d="M119.888,33.05c-0.505-0.159-1.012-0.159-1.517-0.159c-2.189,0-4.211,1.346-4.884,3.701L75.931,156.835
		c-0.839,2.701,0.675,5.561,3.37,6.402c0.504,0.168,1.009,0.168,1.516,0.168c2.355,0,4.208-1.514,4.881-3.71l37.388-120.41
		C124.096,36.761,122.579,33.901,119.888,33.05z"/>
</g>
</svg>
