<?xml version="1.0" encoding="utf-8"?>
<!-- Generator: Adobe Illustrator 16.0.0, SVG Export Plug-In . SVG Version: 6.00 Build 0)  -->
<!DOCTYPE svg PUBLIC "-//W3C//DTD SVG 1.1//EN" "http://www.w3.org/Graphics/SVG/1.1/DTD/svg11.dtd">
<svg version="1.1" id="Layer_1" xmlns="http://www.w3.org/2000/svg" xmlns:xlink="http://www.w3.org/1999/xlink" x="0px" y="0px"
	 width="200px" height="200px" viewBox="0 0 200 200" enable-background="new 0 0 200 200" xml:space="preserve">
<g>
	<path fill="#FFFFFF" d="M111.759,24.573c7.281,0,13.188,5.905,13.188,13.191s-5.907,13.182-13.188,13.182
		c-7.284,0-13.188-5.896-13.188-13.182S104.476,24.573,111.759,24.573z"/>
	<path fill="#FFFFFF" d="M115.386,107.268l-13.186,25.25l-32.543,21.886l6.732,15.703l39.941-27.809l12.25-26.048l25.241,14.59
		l2.807,39.267h14.027v-47.692l-34.229-23.564l-7.845-40.962c0,0-6.744-8.417-19.649-3.365l-17.956,8.973l-15.07,28.681
		l11.524,3.735l14.479-23.841l7.576-2.29l2.728,10.66l-5.07,9.816l-23.406,3.041l-0.88,13.191l29.565-8.77l3.251-6.173l-0.28,11.782
		"/>
	<polyline fill="#FFFFFF" points="76.655,84.065 25.892,59.269 18.712,72.775 68.245,97.563 	"/>
	<polyline fill="#FFFFFF" points="67.589,93.873 83.361,102.364 85.73,92.751 72.845,86.328 67.589,95.56 	"/>
	<path fill="#FFFFFF" d="M174,96.32c4.199,0,7.601,3.402,7.601,7.61c0,4.19-3.402,7.592-7.601,7.592
		c-4.195,0-7.597-3.402-7.597-7.592C166.404,99.722,169.806,96.32,174,96.32z"/>
</g>
</svg>
