<?xml version="1.0" encoding="utf-8"?>
<!-- Generator: Adobe Illustrator 16.0.0, SVG Export Plug-In . SVG Version: 6.00 Build 0)  -->
<!DOCTYPE svg PUBLIC "-//W3C//DTD SVG 1.1//EN" "http://www.w3.org/Graphics/SVG/1.1/DTD/svg11.dtd">
<svg version="1.1" id="Layer_1" xmlns="http://www.w3.org/2000/svg" xmlns:xlink="http://www.w3.org/1999/xlink" x="0px" y="0px"
	 width="365px" height="365px" viewBox="0 0 365 365" enable-background="new 0 0 365 365" xml:space="preserve">
<g>
	
		<image overflow="visible" opacity="0.75" enable-background="new    " width="236" height="202" xlink:href="C9821D7.png"  transform="matrix(0.9958 0 0 0.995 148.4878 -17.5117)">
	</image>
	<polygon fill="#2B2B2B" points="365.137,147.77 325.137,147.77 325.137,40.03 182.614,40.03 182.614,0.03 365.137,0.03 	"/>
</g>
<g>
	
		<image overflow="visible" opacity="0.75" enable-background="new    " width="237" height="199" xlink:href="C9821D2.png"  transform="matrix(0.9958 0 0 0.995 -17.5122 185.4873)">
	</image>
	<polygon fill="#2B2B2B" points="182.595,365.312 -0.144,365.312 -0.144,220.328 39.856,220.328 39.856,325.312 182.595,325.312 	
		"/>
</g>
<path fill="#2B2B2B" d="M0,201.641V0h85.484c9.274,0,17.843,1.944,25.702,5.822c7.854,3.883,14.626,8.995,20.306,15.336
	c5.68,6.346,10.126,13.539,13.348,21.584c3.217,8.05,4.828,16.144,4.828,24.282c0,8.52-1.518,16.805-4.544,24.85
	c-3.031,8.05-7.291,15.194-12.78,21.442c-5.494,6.248-12.119,11.267-19.88,15.052c-7.766,3.79-16.286,5.68-25.56,5.68H39.192v67.593
	H0z M39.192,99.684h45.44c7.193,0,13.206-2.933,18.034-8.804c4.828-5.867,7.242-13.819,7.242-23.856c0-5.112-0.759-9.7-2.271-13.774
	c-1.518-4.069-3.505-7.526-5.964-10.366c-2.463-2.84-5.352-4.97-8.662-6.39c-3.314-1.42-6.674-2.13-10.082-2.13H39.192V99.684z"/>
<path fill="#2B2B2B" d="M193.648,365.344V163.989h39.19v95.708l84.632-95.992h43.168l-77.246,89.46l82.073,112.18h-44.021
	l-62.766-87.188l-25.844,26.979v60.207L193.648,365.344L193.648,365.344z"/>
</svg>
