<?xml version="1.0" encoding="utf-8"?>
<!-- Generator: Adobe Illustrator 16.0.0, SVG Export Plug-In . SVG Version: 6.00 Build 0)  -->
<!DOCTYPE svg PUBLIC "-//W3C//DTD SVG 1.1//EN" "http://www.w3.org/Graphics/SVG/1.1/DTD/svg11.dtd">
<svg version="1.1" id="Layer_1" xmlns="http://www.w3.org/2000/svg" xmlns:xlink="http://www.w3.org/1999/xlink" x="0px" y="0px"
	 width="365px" height="365px" viewBox="0 0 365 365" enable-background="new 0 0 365 365" xml:space="preserve">
<polyline fill="none" stroke="#404041" stroke-width="40" stroke-miterlimit="10" points="182.614,20.03 345.137,20.03 
	345.137,147.77 "/>
<polyline fill="none" stroke="#404041" stroke-width="40" stroke-miterlimit="10" points="182.595,345.311 19.856,345.311 
	19.856,220.328 "/>
<g>
	<path fill="#404041" d="M0,201.64V0h85.484c9.274,0,17.843,1.944,25.702,5.822c7.854,3.883,14.626,8.995,20.306,15.336
		c5.68,6.346,10.126,13.539,13.348,21.584c3.217,8.05,4.828,16.144,4.828,24.282c0,8.52-1.518,16.805-4.544,24.85
		c-3.031,8.05-7.291,15.194-12.78,21.442c-5.494,6.248-12.119,11.267-19.88,15.052c-7.766,3.79-16.286,5.68-25.56,5.68H39.192
		v67.592H0z M39.192,99.684h45.44c7.193,0,13.206-2.933,18.034-8.804c4.828-5.867,7.242-13.819,7.242-23.856
		c0-5.112-0.759-9.7-2.272-13.774c-1.518-4.069-3.505-7.526-5.964-10.366c-2.463-2.84-5.352-4.97-8.662-6.39
		c-3.314-1.42-6.674-2.13-10.082-2.13H39.192V99.684z"/>
</g>
<g>
	<path fill="#404041" d="M193.649,365.344V163.989h39.192v95.708l84.631-95.992h43.168l-77.248,89.46l82.076,112.18h-44.02
		l-62.764-87.188l-25.844,26.98v60.207H193.649z"/>
</g>
</svg>
