<?xml version="1.0" encoding="utf-8"?>
<!-- Generator: Adobe Illustrator 16.0.0, SVG Export Plug-In . SVG Version: 6.00 Build 0)  -->
<!DOCTYPE svg PUBLIC "-//W3C//DTD SVG 1.1//EN" "http://www.w3.org/Graphics/SVG/1.1/DTD/svg11.dtd">
<svg version="1.1" id="Layer_1" xmlns="http://www.w3.org/2000/svg" xmlns:xlink="http://www.w3.org/1999/xlink" x="0px" y="0px"
	 width="200px" height="200px" viewBox="0 0 200 200" enable-background="new 0 0 200 200" xml:space="preserve">
<g>
	<path fill="#FFFFFF" d="M85.196,184.846v-15.971c-9.469,0.599-16.565-7.094-16.565-15.97c0-8.864,7.097-15.97,16.565-15.372
		v-15.982H55.615c1.185-2.355,3.55-5.322,3.55-8.277c0-11.831-17.743-11.831-17.743,0c0,2.955,1.773,5.922,2.955,8.277H14.802
		v58.569c0,2.356,2.366,4.726,4.734,4.726H85.196z"/>
	<path fill="#FFFFFF" d="M162.088,121.551h-18.335c0.592,9.476-6.505,17.154-15.375,17.154c-9.466,0-16.565-7.679-15.977-17.154
		H91.701v24.847c-2.366-0.586-5.324-2.356-7.692-2.356c-11.236,0-11.236,17.74,0,17.74c2.368,0,5.326-1.184,7.692-2.368v25.433
		h65.66c2.368,0,4.728-2.369,4.728-4.726V121.551z"/>
	<path fill="#FFFFFF" d="M14.802,115.044h20.112c-1.181-8.864,5.913-17.154,15.381-17.154c9.462,0,16.563,8.29,15.378,17.154h19.523
		V88.427c2.954,1.185,5.915,3.553,8.87,3.553c11.831,0,11.831-18.338,0-18.338c-2.955,0-5.916,1.782-8.87,2.954V51.75h-65.66
		c-2.369,0-4.734,2.381-4.734,4.737V115.044z"/>
	<path fill="#FFFFFF" d="M189.893,85.473V26.903c0-2.356-2.369-4.725-5.324-4.725h-65.066v15.384
		c8.876-1.185,17.154,5.909,17.154,15.372c0,9.475-8.278,16.568-17.154,15.384v17.154h29.577c-0.593,2.368-2.369,5.323-2.369,7.691
		c0,11.831,18.339,11.831,18.339,0c0-2.368-1.773-5.323-2.961-7.691H189.893z"/>
</g>
</svg>
